<svg width="151" height="155" viewBox="0 0 151 155" fill="none" xmlns="http://www.w3.org/2000/svg">
<path d="M150.5 77.5C150.5 120.038 116.909 154.5 75.5 154.5C34.0909 154.5 0.5 120.038 0.5 77.5C0.5 34.9617 34.0909 0.5 75.5 0.5C116.909 0.5 150.5 34.9617 150.5 77.5Z" fill="#AE47FF" stroke="black"/>
<g filter="url(#filter0_d_1_6)">
<path d="M47.0909 124H35.2727L69.4545 30.9091H81.0909L115.273 124H103.455L75.6364 45.6364H74.9091L47.0909 124ZM51.4545 87.6364H99.0909V97.6364H51.4545V87.6364Z" fill="white"/>
<path d="M47.0909 124V125H47.7971L48.0333 124.335L47.0909 124ZM35.2727 124L34.334 123.655L33.8403 125H35.2727V124ZM69.4545 30.9091V29.9091H68.7565L68.5158 30.5644L69.4545 30.9091ZM81.0909 30.9091L82.0296 30.5644L81.789 29.9091H81.0909V30.9091ZM115.273 124V125H116.705L116.211 123.655L115.273 124ZM103.455 124L102.512 124.335L102.748 125H103.455V124ZM75.6364 45.6364L76.5787 45.3018L76.3425 44.6364H75.6364V45.6364ZM74.9091 45.6364V44.6364H74.2029L73.9667 45.3018L74.9091 45.6364ZM51.4545 87.6364V86.6364H50.4545V87.6364H51.4545ZM99.0909 87.6364H100.091V86.6364H99.0909V87.6364ZM99.0909 97.6364V98.6364H100.091V97.6364H99.0909ZM51.4545 97.6364H50.4545V98.6364H51.4545V97.6364ZM47.0909 123H35.2727V125H47.0909V123ZM36.2114 124.345L70.3933 31.2538L68.5158 30.5644L34.334 123.655L36.2114 124.345ZM69.4545 31.9091H81.0909V29.9091H69.4545V31.9091ZM80.1522 31.2538L114.334 124.345L116.211 123.655L82.0296 30.5644L80.1522 31.2538ZM115.273 123H103.455V125H115.273V123ZM104.397 123.665L76.5787 45.3018L74.694 45.9709L102.512 124.335L104.397 123.665ZM75.6364 44.6364H74.9091V46.6364H75.6364V44.6364ZM73.9667 45.3018L46.1485 123.665L48.0333 124.335L75.8515 45.9709L73.9667 45.3018ZM51.4545 88.6364H99.0909V86.6364H51.4545V88.6364ZM98.0909 87.6364V97.6364H100.091V87.6364H98.0909ZM99.0909 96.6364H51.4545V98.6364H99.0909V96.6364ZM52.4545 97.6364V87.6364H50.4545V97.6364H52.4545Z" fill="#B4FFED"/>
</g>
<defs>
<filter id="filter0_d_1_6" x="31.2727" y="30.9091" width="88" height="101.091" filterUnits="userSpaceOnUse" color-interpolation-filters="sRGB">
<feFlood flood-opacity="0" result="BackgroundImageFix"/>
<feColorMatrix in="SourceAlpha" type="matrix" values="0 0 0 0 0 0 0 0 0 0 0 0 0 0 0 0 0 0 127 0" result="hardAlpha"/>
<feOffset dy="4"/>
<feGaussianBlur stdDeviation="2"/>
<feComposite in2="hardAlpha" operator="out"/>
<feColorMatrix type="matrix" values="0 0 0 0 0 0 0 0 0 0 0 0 0 0 0 0 0 0 0.25 0"/>
<feBlend mode="normal" in2="BackgroundImageFix" result="effect1_dropShadow_1_6"/>
<feBlend mode="normal" in="SourceGraphic" in2="effect1_dropShadow_1_6" result="shape"/>
</filter>
</defs>
</svg>
